/* XPM */
static char * 3_xpm[] = {
"20 25 3 1",
" 	c None",
".	c #FEFEFE",
"+	c #FFFFFF",
"     ........       ",
"   ++++++++++..     ",
"   ++++++++++++.    ",
"   ..       .+++    ",
"             .++.   ",
"              ++.   ",
"              ++.   ",
"              ++.   ",
"             .++.   ",
"            .++.    ",
"      ++++++++.     ",
"      ++++++.       ",
"      ++++++++.     ",
"            .++.    ",
"              .+.   ",
"              .++.  ",
"               ++.  ",
"               ++.  ",
"               ++.  ",
"               ++.  ",
"              .++   ",
"  ..        ..++.   ",
"  +++++++++++++.    ",
"  ++++++++++++.     ",
"    .........       "};
