/* XPM */
static char * 4_xpm[] = {
"20 25 3 1",
" 	c None",
".	c #FEFEFE",
"+	c #FFFFFF",
"            .+++    ",
"           .++++    ",
"          .+.+++    ",
"          .+ +++    ",
"         .+. +++    ",
"         +.  +++    ",
"        .+.  +++    ",
"       .+.   +++    ",
"       ++    +++    ",
"      .+.    +++    ",
"     .+.     +++    ",
"     ++.     +++    ",
"    .+.      +++    ",
"   .++       +++    ",
"   .+.       +++    ",
"  .+.        +++    ",
"  +++++++++++++++++ ",
"  +++++++++++++++++ ",
"  +++++++++++++++++ ",
"             +++    ",
"             +++    ",
"             +++    ",
"             +++    ",
"             +++    ",
"             +++    "};
