/* XPM */
static char * 5_xpm[] = {
"20 25 3 1",
" 	c None",
".	c #FFFFFF",
"+	c #FEFEFE",
"   .............    ",
"   .............    ",
"   .............    ",
"   ...              ",
"   ...              ",
"   ...              ",
"   ...              ",
"   ...              ",
"   ...              ",
"   ...+++++++       ",
"   ..........++     ",
"   ............+    ",
"   ++       +...+   ",
"             +...   ",
"              +..+  ",
"               ..+  ",
"               ..+  ",
"               ..+  ",
"               ..+  ",
"              +..+  ",
"              ...   ",
"  ++        +...+   ",
"  .............+    ",
"  ...........++     ",
"    ++++++++        "};
