/* XPM */
static char * room_xpm[] = {
"50 50 34 1",
" 	c None",
".	c #181818",
"+	c #282828",
"@	c #616161",
"#	c #929292",
"$	c #B8B8B8",
"%	c #D5D5D5",
"&	c #E8E8E8",
"*	c #F2F2F2",
"=	c #6C6C6C",
"-	c #F5F5F5",
";	c #7F7F7F",
">	c #DFDFDF",
",	c #D4D4D4",
"'	c #BBE6BB",
")	c #7ED67D",
"!	c #4DC94C",
"~	c #29C028",
"{	c #10B90F",
"]	c #03B602",
"^	c #9B9B9B",
"/	c #D3ECD3",
"(	c #71D371",
"_	c #1CBD1B",
":	c #01B600",
"<	c #323232",
"[	c #C1C1C1",
"}	c #DFEFDF",
"|	c #66D065",
"1	c #3B3B3B",
"2	c #97DC96",
"3	c #1DBD1C",
"4	c #4ECA4D",
"5	c #02B601",
"                                                  ",
"                  .............                   ",
"                ..+@#$%&**&%$#@+..                ",
"             ...=$--------------$=..              ",
"            ..;>------------------>;..            ",
"          ..@,-----')!~{]]{~!)'-----,@..          ",
"         ..^----/(_::::::::::::_(/----^..         ",
"        .<[---}|::::::::::::::::::|}---[<.        ",
"       .1,---2{::::::::::::::::::::{2---,1.       ",
"      .<,---|::::::::::::::::::::::::|---,<.      ",
"     ..[---!::::::::::::::::::::::::::!---[..     ",
"     .^---!::::::::::::::::::::::::::::!---^.     ",
"    .@---|::::::::::::::::::::::::::::::|---@.    ",
"    .,--2::::::::::::::::::::::::::::::::2--,..   ",
"   .;--}{::::::::::::::::::::::::::::::::{}--;.   ",
"   .>--|::::::::::::::::::::::::::::::::::|-->.   ",
"  .=--/::::::::::::::::::::::::::::::::::::/--=.  ",
"  .$--(::::::::::::::::::::::::::::::::::::(--$.  ",
"  +---3::::::::::::::::::::::::::::::::::::_---+  ",
" .@--'::::::::::::::::::::::::::::::::::::::'--@. ",
" .#--)::::::::::::::::::::::::::::::::::::::)--#. ",
" .$--4::::::::::::::::::::::::::::::::::::::!--$. ",
" .%--~::::::::::::::::::::::::::::::::::::::~--%. ",
" .&--{::::::::::::::::::::::::::::::::::::::{--&. ",
" .*--]::::::::::::::::::::::::::::::::::::::]--*. ",
" .*--]:::::::::::::::::::::55:::::::::::::::]--*. ",
" .&--{::::::::::::::::::::]5::::::::::::::::{--&. ",
" .%--~::::::::::::::::::5]5:::::::::::::::::~--%. ",
" .$--!::::::::::::::::::55::::::::::::::::::!--$. ",
" .#--)::::::::::::::::::::::::::::::::::::::)--#. ",
" .@--'::::::::::::::::::::::::::::::::::::::'--@. ",
"  +---_::::::::::::::::::::::::::::::::::::_---+  ",
"  .$--(::::::::::::::::::::::::::::::::::::(--$.  ",
"  .=--/::::::::::::::::::::::::::::::::::::/--=.  ",
"   .>--|::::::::::::::::::::::::::::::::::|-->.   ",
"   .;--}{::::::::::::::::::::::::::::::::{}--;.   ",
"    .,--2::::::::::::::::::::::::::::::::2--,.    ",
"    .@---|::::::::::::::::::::::::::::::|---@.    ",
"     .^---!::::::::::::::::::::::::::::!---^.     ",
"     ..[---!::::::::::::::::::::::::::!---[..     ",
"      .<,---|::::::::::::::::::::::::|---,<.      ",
"       .1,---2{::::::::::::::::::::{2---,1.       ",
"        .<[---}|::::::::::::::::::|}---[<.        ",
"         ..^----/(_::::::::::::_(/----^..         ",
"          ..@,-----')!~{]]{~!)'-----,@..          ",
"            ..;>------------------>;..            ",
"              ..=$--------------$=..              ",
"                ..+@#$%&**&%$#@+..                ",
"                   ............                   ",
"                                                  "};
